<?xml version="1.0" encoding="UTF-8" standalone="no"?>
<!DOCTYPE svg PUBLIC "-//W3C//DTD SVG 1.1//EN"
 "http://www.w3.org/Graphics/SVG/1.1/DTD/svg11.dtd">
<!-- Generated by graphviz version 2.43.0 (0)
 -->
<!-- Title: DUMP Pages: 1 -->
<svg width="238pt" height="1456pt"
 viewBox="0.00 0.00 237.50 1456.00" xmlns="http://www.w3.org/2000/svg" xmlns:xlink="http://www.w3.org/1999/xlink">
<g id="graph0" class="graph" transform="scale(1 1) rotate(0) translate(4 1452)">
<title>DUMP</title>
<polygon fill="white" stroke="transparent" points="-4,4 -4,-1452 233.5,-1452 233.5,4 -4,4"/>
<!-- 1 -->
<g id="node1" class="node">
<title>1</title>
<polygon fill="none" stroke="red" points="117.5,-1378.5 117.5,-1447.5 229.5,-1447.5 229.5,-1378.5 117.5,-1378.5"/>
<text text-anchor="middle" x="130.5" y="-1409.3" font-family="Times,serif" font-size="14.00">1</text>
<polyline fill="none" stroke="red" points="143.5,-1378.5 143.5,-1447.5 "/>
<text text-anchor="middle" x="186.5" y="-1432.3" font-family="Times,serif" font-size="14.00">Data = 0</text>
<polyline fill="none" stroke="red" points="143.5,-1424.5 229.5,-1424.5 "/>
<text text-anchor="middle" x="186.5" y="-1409.3" font-family="Times,serif" font-size="14.00">Next = &#45;9</text>
<polyline fill="none" stroke="red" points="143.5,-1401.5 229.5,-1401.5 "/>
<text text-anchor="middle" x="186.5" y="-1386.3" font-family="Times,serif" font-size="14.00">Prev = &#45;1</text>
</g>
<!-- 2 -->
<g id="node2" class="node">
<title>2</title>
<polygon fill="none" stroke="red" points="4.5,-1272.5 4.5,-1341.5 128.5,-1341.5 128.5,-1272.5 4.5,-1272.5"/>
<text text-anchor="middle" x="17.5" y="-1303.3" font-family="Times,serif" font-size="14.00">2</text>
<polyline fill="none" stroke="red" points="30.5,-1272.5 30.5,-1341.5 "/>
<text text-anchor="middle" x="79.5" y="-1326.3" font-family="Times,serif" font-size="14.00">Data = 100</text>
<polyline fill="none" stroke="red" points="30.5,-1318.5 128.5,-1318.5 "/>
<text text-anchor="middle" x="79.5" y="-1303.3" font-family="Times,serif" font-size="14.00">Next = 18</text>
<polyline fill="none" stroke="red" points="30.5,-1295.5 128.5,-1295.5 "/>
<text text-anchor="middle" x="79.5" y="-1280.3" font-family="Times,serif" font-size="14.00">Prev = &#45;1</text>
</g>
<!-- 1&#45;&gt;2 -->
<g id="edge1" class="edge">
<title>1&#45;&gt;2</title>
<path fill="none" stroke="white" d="M138.76,-1378.23C129.04,-1368.78 118.37,-1358.41 108.28,-1348.61"/>
<polygon fill="white" stroke="white" points="110.68,-1346.06 101.07,-1341.6 105.8,-1351.08 110.68,-1346.06"/>
</g>
<!-- &#45;9 -->
<g id="node15" class="node">
<title>&#45;9</title>
<polygon fill="none" stroke="red" points="146.5,-1289 146.5,-1325 200.5,-1325 200.5,-1289 146.5,-1289"/>
<text text-anchor="middle" x="173.5" y="-1303.3" font-family="Times,serif" font-size="14.00">&#45;9</text>
</g>
<!-- 1&#45;&gt;&#45;9 -->
<g id="edge14" class="edge">
<title>1&#45;&gt;&#45;9</title>
<path fill="none" stroke="black" d="M167.13,-1378.23C166.53,-1364.33 166.64,-1348.44 167.48,-1335.29"/>
<polygon fill="black" stroke="black" points="170.99,-1335.26 168.35,-1325 164.02,-1334.67 170.99,-1335.26"/>
</g>
<!-- 1&#45;&gt;&#45;9 -->
<g id="edge15" class="edge">
<title>1&#45;&gt;&#45;9</title>
<path fill="none" stroke="black" d="M179.87,-1378.23C180.47,-1364.33 180.36,-1348.44 179.52,-1335.29"/>
<polygon fill="black" stroke="black" points="182.98,-1334.67 178.65,-1325 176.01,-1335.26 182.98,-1334.67"/>
</g>
<!-- 3 -->
<g id="node3" class="node">
<title>3</title>
<polygon fill="none" stroke="red" points="4.5,-1166.5 4.5,-1235.5 128.5,-1235.5 128.5,-1166.5 4.5,-1166.5"/>
<text text-anchor="middle" x="17.5" y="-1197.3" font-family="Times,serif" font-size="14.00">3</text>
<polyline fill="none" stroke="red" points="30.5,-1166.5 30.5,-1235.5 "/>
<text text-anchor="middle" x="79.5" y="-1220.3" font-family="Times,serif" font-size="14.00">Data = 120</text>
<polyline fill="none" stroke="red" points="30.5,-1212.5 128.5,-1212.5 "/>
<text text-anchor="middle" x="79.5" y="-1197.3" font-family="Times,serif" font-size="14.00">Next = 4</text>
<polyline fill="none" stroke="red" points="30.5,-1189.5 128.5,-1189.5 "/>
<text text-anchor="middle" x="79.5" y="-1174.3" font-family="Times,serif" font-size="14.00">Prev = 18</text>
</g>
<!-- 2&#45;&gt;3 -->
<g id="edge2" class="edge">
<title>2&#45;&gt;3</title>
<path fill="none" stroke="white" d="M66.5,-1272.23C66.5,-1263.79 66.5,-1254.62 66.5,-1245.77"/>
<polygon fill="white" stroke="white" points="70,-1245.6 66.5,-1235.6 63,-1245.6 70,-1245.6"/>
</g>
<!-- 4 -->
<g id="node4" class="node">
<title>4</title>
<polygon fill="none" stroke="red" points="4.5,-1060.5 4.5,-1129.5 128.5,-1129.5 128.5,-1060.5 4.5,-1060.5"/>
<text text-anchor="middle" x="17.5" y="-1091.3" font-family="Times,serif" font-size="14.00">4</text>
<polyline fill="none" stroke="red" points="30.5,-1060.5 30.5,-1129.5 "/>
<text text-anchor="middle" x="79.5" y="-1114.3" font-family="Times,serif" font-size="14.00">Data = 130</text>
<polyline fill="none" stroke="red" points="30.5,-1106.5 128.5,-1106.5 "/>
<text text-anchor="middle" x="79.5" y="-1091.3" font-family="Times,serif" font-size="14.00">Next = 6</text>
<polyline fill="none" stroke="red" points="30.5,-1083.5 128.5,-1083.5 "/>
<text text-anchor="middle" x="79.5" y="-1068.3" font-family="Times,serif" font-size="14.00">Prev = 3</text>
</g>
<!-- 3&#45;&gt;4 -->
<g id="edge3" class="edge">
<title>3&#45;&gt;4</title>
<path fill="none" stroke="white" d="M66.5,-1166.23C66.5,-1157.79 66.5,-1148.62 66.5,-1139.77"/>
<polygon fill="white" stroke="white" points="70,-1139.6 66.5,-1129.6 63,-1139.6 70,-1139.6"/>
</g>
<!-- 5 -->
<g id="node5" class="node">
<title>5</title>
<polygon fill="none" stroke="red" points="4.5,-954.5 4.5,-1023.5 128.5,-1023.5 128.5,-954.5 4.5,-954.5"/>
<text text-anchor="middle" x="17.5" y="-985.3" font-family="Times,serif" font-size="14.00">5</text>
<polyline fill="none" stroke="red" points="30.5,-954.5 30.5,-1023.5 "/>
<text text-anchor="middle" x="79.5" y="-1008.3" font-family="Times,serif" font-size="14.00">Data = 140</text>
<polyline fill="none" stroke="red" points="30.5,-1000.5 128.5,-1000.5 "/>
<text text-anchor="middle" x="79.5" y="-985.3" font-family="Times,serif" font-size="14.00">Next = 8</text>
<polyline fill="none" stroke="red" points="30.5,-977.5 128.5,-977.5 "/>
<text text-anchor="middle" x="79.5" y="-962.3" font-family="Times,serif" font-size="14.00">Prev = 7</text>
</g>
<!-- 4&#45;&gt;5 -->
<g id="edge4" class="edge">
<title>4&#45;&gt;5</title>
<path fill="none" stroke="white" d="M66.5,-1060.23C66.5,-1051.79 66.5,-1042.62 66.5,-1033.77"/>
<polygon fill="white" stroke="white" points="70,-1033.6 66.5,-1023.6 63,-1033.6 70,-1033.6"/>
</g>
<!-- 6 -->
<g id="node6" class="node">
<title>6</title>
<polygon fill="none" stroke="red" points="4.5,-848.5 4.5,-917.5 128.5,-917.5 128.5,-848.5 4.5,-848.5"/>
<text text-anchor="middle" x="17.5" y="-879.3" font-family="Times,serif" font-size="14.00">6</text>
<polyline fill="none" stroke="red" points="30.5,-848.5 30.5,-917.5 "/>
<text text-anchor="middle" x="79.5" y="-902.3" font-family="Times,serif" font-size="14.00">Data = 150</text>
<polyline fill="none" stroke="red" points="30.5,-894.5 128.5,-894.5 "/>
<text text-anchor="middle" x="79.5" y="-879.3" font-family="Times,serif" font-size="14.00">Next = 7</text>
<polyline fill="none" stroke="red" points="30.5,-871.5 128.5,-871.5 "/>
<text text-anchor="middle" x="79.5" y="-856.3" font-family="Times,serif" font-size="14.00">Prev = 4</text>
</g>
<!-- 5&#45;&gt;6 -->
<g id="edge5" class="edge">
<title>5&#45;&gt;6</title>
<path fill="none" stroke="white" d="M66.5,-954.23C66.5,-945.79 66.5,-936.62 66.5,-927.77"/>
<polygon fill="white" stroke="white" points="70,-927.6 66.5,-917.6 63,-927.6 70,-927.6"/>
</g>
<!-- 7 -->
<g id="node7" class="node">
<title>7</title>
<polygon fill="none" stroke="red" points="4.5,-742.5 4.5,-811.5 128.5,-811.5 128.5,-742.5 4.5,-742.5"/>
<text text-anchor="middle" x="17.5" y="-773.3" font-family="Times,serif" font-size="14.00">7</text>
<polyline fill="none" stroke="red" points="30.5,-742.5 30.5,-811.5 "/>
<text text-anchor="middle" x="79.5" y="-796.3" font-family="Times,serif" font-size="14.00">Data = 160</text>
<polyline fill="none" stroke="red" points="30.5,-788.5 128.5,-788.5 "/>
<text text-anchor="middle" x="79.5" y="-773.3" font-family="Times,serif" font-size="14.00">Next = 5</text>
<polyline fill="none" stroke="red" points="30.5,-765.5 128.5,-765.5 "/>
<text text-anchor="middle" x="79.5" y="-750.3" font-family="Times,serif" font-size="14.00">Prev = 6</text>
</g>
<!-- 6&#45;&gt;7 -->
<g id="edge6" class="edge">
<title>6&#45;&gt;7</title>
<path fill="none" stroke="white" d="M66.5,-848.23C66.5,-839.79 66.5,-830.62 66.5,-821.77"/>
<polygon fill="white" stroke="white" points="70,-821.6 66.5,-811.6 63,-821.6 70,-821.6"/>
</g>
<!-- 8 -->
<g id="node8" class="node">
<title>8</title>
<polygon fill="none" stroke="red" points="4.5,-636.5 4.5,-705.5 128.5,-705.5 128.5,-636.5 4.5,-636.5"/>
<text text-anchor="middle" x="17.5" y="-667.3" font-family="Times,serif" font-size="14.00">8</text>
<polyline fill="none" stroke="red" points="30.5,-636.5 30.5,-705.5 "/>
<text text-anchor="middle" x="79.5" y="-690.3" font-family="Times,serif" font-size="14.00">Data = 170</text>
<polyline fill="none" stroke="red" points="30.5,-682.5 128.5,-682.5 "/>
<text text-anchor="middle" x="79.5" y="-667.3" font-family="Times,serif" font-size="14.00">Next = 0</text>
<polyline fill="none" stroke="red" points="30.5,-659.5 128.5,-659.5 "/>
<text text-anchor="middle" x="79.5" y="-644.3" font-family="Times,serif" font-size="14.00">Prev = 5</text>
</g>
<!-- 7&#45;&gt;8 -->
<g id="edge7" class="edge">
<title>7&#45;&gt;8</title>
<path fill="none" stroke="white" d="M66.5,-742.23C66.5,-733.79 66.5,-724.62 66.5,-715.77"/>
<polygon fill="white" stroke="white" points="70,-715.6 66.5,-705.6 63,-715.6 70,-715.6"/>
</g>
<!-- 9 -->
<g id="node9" class="node">
<title>9</title>
<polygon fill="none" stroke="red" points="13,-530.5 13,-599.5 120,-599.5 120,-530.5 13,-530.5"/>
<text text-anchor="middle" x="26" y="-561.3" font-family="Times,serif" font-size="14.00">9</text>
<polyline fill="none" stroke="red" points="39,-530.5 39,-599.5 "/>
<text text-anchor="middle" x="79.5" y="-584.3" font-family="Times,serif" font-size="14.00">Data = 0</text>
<polyline fill="none" stroke="red" points="39,-576.5 120,-576.5 "/>
<text text-anchor="middle" x="79.5" y="-561.3" font-family="Times,serif" font-size="14.00">Next = 0</text>
<polyline fill="none" stroke="red" points="39,-553.5 120,-553.5 "/>
<text text-anchor="middle" x="79.5" y="-538.3" font-family="Times,serif" font-size="14.00">Prev = 0</text>
</g>
<!-- 8&#45;&gt;9 -->
<g id="edge8" class="edge">
<title>8&#45;&gt;9</title>
<path fill="none" stroke="white" d="M66.5,-636.23C66.5,-627.79 66.5,-618.62 66.5,-609.77"/>
<polygon fill="white" stroke="white" points="70,-609.6 66.5,-599.6 63,-609.6 70,-609.6"/>
</g>
<!-- 10 -->
<g id="node10" class="node">
<title>10</title>
<polygon fill="none" stroke="red" points="0,-424.5 0,-493.5 133,-493.5 133,-424.5 0,-424.5"/>
<text text-anchor="middle" x="17.5" y="-455.3" font-family="Times,serif" font-size="14.00">10</text>
<polyline fill="none" stroke="red" points="35,-424.5 35,-493.5 "/>
<text text-anchor="middle" x="84" y="-478.3" font-family="Times,serif" font-size="14.00">Data = 100</text>
<polyline fill="none" stroke="red" points="35,-470.5 133,-470.5 "/>
<text text-anchor="middle" x="84" y="-455.3" font-family="Times,serif" font-size="14.00">Next = 11</text>
<polyline fill="none" stroke="red" points="35,-447.5 133,-447.5 "/>
<text text-anchor="middle" x="84" y="-432.3" font-family="Times,serif" font-size="14.00">Prev = 0</text>
</g>
<!-- 9&#45;&gt;10 -->
<g id="edge9" class="edge">
<title>9&#45;&gt;10</title>
<path fill="none" stroke="white" d="M66.5,-530.23C66.5,-521.79 66.5,-512.62 66.5,-503.77"/>
<polygon fill="white" stroke="white" points="70,-503.6 66.5,-493.6 63,-503.6 70,-503.6"/>
</g>
<!-- 11 -->
<g id="node11" class="node">
<title>11</title>
<polygon fill="none" stroke="red" points="0,-318.5 0,-387.5 133,-387.5 133,-318.5 0,-318.5"/>
<text text-anchor="middle" x="17.5" y="-349.3" font-family="Times,serif" font-size="14.00">11</text>
<polyline fill="none" stroke="red" points="35,-318.5 35,-387.5 "/>
<text text-anchor="middle" x="84" y="-372.3" font-family="Times,serif" font-size="14.00">Data = 120</text>
<polyline fill="none" stroke="red" points="35,-364.5 133,-364.5 "/>
<text text-anchor="middle" x="84" y="-349.3" font-family="Times,serif" font-size="14.00">Next = 12</text>
<polyline fill="none" stroke="red" points="35,-341.5 133,-341.5 "/>
<text text-anchor="middle" x="84" y="-326.3" font-family="Times,serif" font-size="14.00">Prev = 10</text>
</g>
<!-- 10&#45;&gt;11 -->
<g id="edge10" class="edge">
<title>10&#45;&gt;11</title>
<path fill="none" stroke="white" d="M66.5,-424.23C66.5,-415.79 66.5,-406.62 66.5,-397.77"/>
<polygon fill="white" stroke="white" points="70,-397.6 66.5,-387.6 63,-397.6 70,-397.6"/>
</g>
<!-- 12 -->
<g id="node12" class="node">
<title>12</title>
<polygon fill="none" stroke="red" points="0,-212.5 0,-281.5 133,-281.5 133,-212.5 0,-212.5"/>
<text text-anchor="middle" x="17.5" y="-243.3" font-family="Times,serif" font-size="14.00">12</text>
<polyline fill="none" stroke="red" points="35,-212.5 35,-281.5 "/>
<text text-anchor="middle" x="84" y="-266.3" font-family="Times,serif" font-size="14.00">Data = 130</text>
<polyline fill="none" stroke="red" points="35,-258.5 133,-258.5 "/>
<text text-anchor="middle" x="84" y="-243.3" font-family="Times,serif" font-size="14.00">Next = 13</text>
<polyline fill="none" stroke="red" points="35,-235.5 133,-235.5 "/>
<text text-anchor="middle" x="84" y="-220.3" font-family="Times,serif" font-size="14.00">Prev = 11</text>
</g>
<!-- 11&#45;&gt;12 -->
<g id="edge11" class="edge">
<title>11&#45;&gt;12</title>
<path fill="none" stroke="white" d="M66.5,-318.23C66.5,-309.79 66.5,-300.62 66.5,-291.77"/>
<polygon fill="white" stroke="white" points="70,-291.6 66.5,-281.6 63,-291.6 70,-291.6"/>
</g>
<!-- 13 -->
<g id="node13" class="node">
<title>13</title>
<polygon fill="none" stroke="red" points="0,-106.5 0,-175.5 133,-175.5 133,-106.5 0,-106.5"/>
<text text-anchor="middle" x="17.5" y="-137.3" font-family="Times,serif" font-size="14.00">13</text>
<polyline fill="none" stroke="red" points="35,-106.5 35,-175.5 "/>
<text text-anchor="middle" x="84" y="-160.3" font-family="Times,serif" font-size="14.00">Data = 140</text>
<polyline fill="none" stroke="red" points="35,-152.5 133,-152.5 "/>
<text text-anchor="middle" x="84" y="-137.3" font-family="Times,serif" font-size="14.00">Next = 14</text>
<polyline fill="none" stroke="red" points="35,-129.5 133,-129.5 "/>
<text text-anchor="middle" x="84" y="-114.3" font-family="Times,serif" font-size="14.00">Prev = 12</text>
</g>
<!-- 12&#45;&gt;13 -->
<g id="edge12" class="edge">
<title>12&#45;&gt;13</title>
<path fill="none" stroke="white" d="M66.5,-212.23C66.5,-203.79 66.5,-194.62 66.5,-185.77"/>
<polygon fill="white" stroke="white" points="70,-185.6 66.5,-175.6 63,-185.6 70,-185.6"/>
</g>
<!-- 14 -->
<g id="node14" class="node">
<title>14</title>
<polygon fill="none" stroke="red" points="0,-0.5 0,-69.5 133,-69.5 133,-0.5 0,-0.5"/>
<text text-anchor="middle" x="17.5" y="-31.3" font-family="Times,serif" font-size="14.00">14</text>
<polyline fill="none" stroke="red" points="35,-0.5 35,-69.5 "/>
<text text-anchor="middle" x="84" y="-54.3" font-family="Times,serif" font-size="14.00">Data = 150</text>
<polyline fill="none" stroke="red" points="35,-46.5 133,-46.5 "/>
<text text-anchor="middle" x="84" y="-31.3" font-family="Times,serif" font-size="14.00">Next = 15</text>
<polyline fill="none" stroke="red" points="35,-23.5 133,-23.5 "/>
<text text-anchor="middle" x="84" y="-8.3" font-family="Times,serif" font-size="14.00">Prev = 13</text>
</g>
<!-- 13&#45;&gt;14 -->
<g id="edge13" class="edge">
<title>13&#45;&gt;14</title>
<path fill="none" stroke="white" d="M66.5,-106.23C66.5,-97.79 66.5,-88.62 66.5,-79.77"/>
<polygon fill="white" stroke="white" points="70,-79.6 66.5,-69.6 63,-79.6 70,-79.6"/>
</g>
</g>
</svg>
