<?xml version="1.0" encoding="UTF-8" standalone="no"?>
<!DOCTYPE svg PUBLIC "-//W3C//DTD SVG 1.1//EN"
 "http://www.w3.org/Graphics/SVG/1.1/DTD/svg11.dtd">
<!-- Generated by graphviz version 2.43.0 (0)
 -->
<!-- Title: DUMP Pages: 1 -->
<svg width="290pt" height="1456pt"
 viewBox="0.00 0.00 289.50 1456.00" xmlns="http://www.w3.org/2000/svg" xmlns:xlink="http://www.w3.org/1999/xlink">
<g id="graph0" class="graph" transform="scale(1 1) rotate(0) translate(4 1452)">
<title>DUMP</title>
<polygon fill="white" stroke="transparent" points="-4,4 -4,-1452 285.5,-1452 285.5,4 -4,4"/>
<!-- 1 -->
<g id="node1" class="node">
<title>1</title>
<polygon fill="none" stroke="red" points="152.5,-1378.5 152.5,-1447.5 281.5,-1447.5 281.5,-1378.5 152.5,-1378.5"/>
<text text-anchor="middle" x="165.5" y="-1409.3" font-family="Times,serif" font-size="14.00">1</text>
<polyline fill="none" stroke="red" points="178.5,-1378.5 178.5,-1447.5 "/>
<text text-anchor="middle" x="230" y="-1432.3" font-family="Times,serif" font-size="14.00">Data = &#45;999</text>
<polyline fill="none" stroke="red" points="178.5,-1424.5 281.5,-1424.5 "/>
<text text-anchor="middle" x="230" y="-1409.3" font-family="Times,serif" font-size="14.00">Next = &#45;9</text>
<polyline fill="none" stroke="red" points="178.5,-1401.5 281.5,-1401.5 "/>
<text text-anchor="middle" x="230" y="-1386.3" font-family="Times,serif" font-size="14.00">Prev = &#45;1</text>
</g>
<!-- 2 -->
<g id="node2" class="node">
<title>2</title>
<polygon fill="none" stroke="red" points="159,-1272.5 159,-1341.5 275,-1341.5 275,-1272.5 159,-1272.5"/>
<text text-anchor="middle" x="172" y="-1303.3" font-family="Times,serif" font-size="14.00">2</text>
<polyline fill="none" stroke="red" points="185,-1272.5 185,-1341.5 "/>
<text text-anchor="middle" x="230" y="-1326.3" font-family="Times,serif" font-size="14.00">Data = 20</text>
<polyline fill="none" stroke="red" points="185,-1318.5 275,-1318.5 "/>
<text text-anchor="middle" x="230" y="-1303.3" font-family="Times,serif" font-size="14.00">Next = 11</text>
<polyline fill="none" stroke="red" points="185,-1295.5 275,-1295.5 "/>
<text text-anchor="middle" x="230" y="-1280.3" font-family="Times,serif" font-size="14.00">Prev = &#45;1</text>
</g>
<!-- 1&#45;&gt;2 -->
<g id="edge1" class="edge">
<title>1&#45;&gt;2</title>
<path fill="none" stroke="white" d="M217,-1378.23C217,-1369.79 217,-1360.62 217,-1351.77"/>
<polygon fill="white" stroke="white" points="220.5,-1351.6 217,-1341.6 213.5,-1351.6 220.5,-1351.6"/>
</g>
<!-- 3 -->
<g id="node3" class="node">
<title>3</title>
<polygon fill="none" stroke="red" points="73.5,-1166.5 73.5,-1235.5 188.5,-1235.5 188.5,-1166.5 73.5,-1166.5"/>
<text text-anchor="middle" x="86.5" y="-1197.3" font-family="Times,serif" font-size="14.00">3</text>
<polyline fill="none" stroke="red" points="99.5,-1166.5 99.5,-1235.5 "/>
<text text-anchor="middle" x="144" y="-1220.3" font-family="Times,serif" font-size="14.00">Data = 30</text>
<polyline fill="none" stroke="red" points="99.5,-1212.5 188.5,-1212.5 "/>
<text text-anchor="middle" x="144" y="-1197.3" font-family="Times,serif" font-size="14.00">Next = 4</text>
<polyline fill="none" stroke="red" points="99.5,-1189.5 188.5,-1189.5 "/>
<text text-anchor="middle" x="144" y="-1174.3" font-family="Times,serif" font-size="14.00">Prev = 11</text>
</g>
<!-- 2&#45;&gt;3 -->
<g id="edge2" class="edge">
<title>2&#45;&gt;3</title>
<path fill="none" stroke="white" d="M189.08,-1272.23C181.49,-1263.06 173.19,-1253.02 165.29,-1243.47"/>
<polygon fill="white" stroke="white" points="167.85,-1241.07 158.78,-1235.6 162.46,-1245.53 167.85,-1241.07"/>
</g>
<!-- 11 -->
<g id="node11" class="node">
<title>11</title>
<polygon fill="none" stroke="red" points="103,-318.5 103,-387.5 227,-387.5 227,-318.5 103,-318.5"/>
<text text-anchor="middle" x="120.5" y="-349.3" font-family="Times,serif" font-size="14.00">11</text>
<polyline fill="none" stroke="red" points="138,-318.5 138,-387.5 "/>
<text text-anchor="middle" x="182.5" y="-372.3" font-family="Times,serif" font-size="14.00">Data = 99</text>
<polyline fill="none" stroke="red" points="138,-364.5 227,-364.5 "/>
<text text-anchor="middle" x="182.5" y="-349.3" font-family="Times,serif" font-size="14.00">Next = 3</text>
<polyline fill="none" stroke="red" points="138,-341.5 227,-341.5 "/>
<text text-anchor="middle" x="182.5" y="-326.3" font-family="Times,serif" font-size="14.00">Prev = 2</text>
</g>
<!-- 2&#45;&gt;11 -->
<g id="edge14" class="edge">
<title>2&#45;&gt;11</title>
<path fill="none" stroke="black" d="M228.3,-1272.24C241.04,-1231.11 260,-1159.27 260,-1096 260,-1096 260,-1096 260,-564 260,-501.21 270.03,-479.68 241,-424 235.43,-413.31 227.54,-403.41 218.95,-394.63"/>
<polygon fill="black" stroke="black" points="221.22,-391.95 211.6,-387.51 216.35,-396.98 221.22,-391.95"/>
</g>
<!-- 4 -->
<g id="node4" class="node">
<title>4</title>
<polygon fill="none" stroke="red" points="73.5,-1060.5 73.5,-1129.5 188.5,-1129.5 188.5,-1060.5 73.5,-1060.5"/>
<text text-anchor="middle" x="86.5" y="-1091.3" font-family="Times,serif" font-size="14.00">4</text>
<polyline fill="none" stroke="red" points="99.5,-1060.5 99.5,-1129.5 "/>
<text text-anchor="middle" x="144" y="-1114.3" font-family="Times,serif" font-size="14.00">Data = 40</text>
<polyline fill="none" stroke="red" points="99.5,-1106.5 188.5,-1106.5 "/>
<text text-anchor="middle" x="144" y="-1091.3" font-family="Times,serif" font-size="14.00">Next = 6</text>
<polyline fill="none" stroke="red" points="99.5,-1083.5 188.5,-1083.5 "/>
<text text-anchor="middle" x="144" y="-1068.3" font-family="Times,serif" font-size="14.00">Prev = 3</text>
</g>
<!-- 3&#45;&gt;4 -->
<g id="edge3" class="edge">
<title>3&#45;&gt;4</title>
<path fill="none" stroke="white" d="M124.63,-1166.23C124.26,-1157.79 124.16,-1148.62 124.33,-1139.77"/>
<polygon fill="white" stroke="white" points="127.83,-1139.7 124.64,-1129.6 120.83,-1139.48 127.83,-1139.7"/>
</g>
<!-- 3&#45;&gt;4 -->
<g id="edge16" class="edge">
<title>3&#45;&gt;4</title>
<path fill="none" stroke="black" d="M137.37,-1166.23C137.74,-1157.79 137.84,-1148.62 137.67,-1139.77"/>
<polygon fill="black" stroke="black" points="141.17,-1139.48 137.36,-1129.6 134.17,-1139.7 141.17,-1139.48"/>
</g>
<!-- 5 -->
<g id="node5" class="node">
<title>5</title>
<polygon fill="none" stroke="red" points="30.5,-954.5 30.5,-1023.5 145.5,-1023.5 145.5,-954.5 30.5,-954.5"/>
<text text-anchor="middle" x="43.5" y="-985.3" font-family="Times,serif" font-size="14.00">5</text>
<polyline fill="none" stroke="red" points="56.5,-954.5 56.5,-1023.5 "/>
<text text-anchor="middle" x="101" y="-1008.3" font-family="Times,serif" font-size="14.00">Data = 88</text>
<polyline fill="none" stroke="red" points="56.5,-1000.5 145.5,-1000.5 "/>
<text text-anchor="middle" x="101" y="-985.3" font-family="Times,serif" font-size="14.00">Next = 8</text>
<polyline fill="none" stroke="red" points="56.5,-977.5 145.5,-977.5 "/>
<text text-anchor="middle" x="101" y="-962.3" font-family="Times,serif" font-size="14.00">Prev = 7</text>
</g>
<!-- 4&#45;&gt;5 -->
<g id="edge4" class="edge">
<title>4&#45;&gt;5</title>
<path fill="none" stroke="white" d="M117.04,-1060.23C113.44,-1051.52 109.51,-1042.02 105.74,-1032.91"/>
<polygon fill="white" stroke="white" points="108.95,-1031.5 101.89,-1023.6 102.48,-1034.17 108.95,-1031.5"/>
</g>
<!-- 6 -->
<g id="node6" class="node">
<title>6</title>
<polygon fill="none" stroke="red" points="116.5,-848.5 116.5,-917.5 231.5,-917.5 231.5,-848.5 116.5,-848.5"/>
<text text-anchor="middle" x="129.5" y="-879.3" font-family="Times,serif" font-size="14.00">6</text>
<polyline fill="none" stroke="red" points="142.5,-848.5 142.5,-917.5 "/>
<text text-anchor="middle" x="187" y="-902.3" font-family="Times,serif" font-size="14.00">Data = 60</text>
<polyline fill="none" stroke="red" points="142.5,-894.5 231.5,-894.5 "/>
<text text-anchor="middle" x="187" y="-879.3" font-family="Times,serif" font-size="14.00">Next = 7</text>
<polyline fill="none" stroke="red" points="142.5,-871.5 231.5,-871.5 "/>
<text text-anchor="middle" x="187" y="-856.3" font-family="Times,serif" font-size="14.00">Prev = 4</text>
</g>
<!-- 4&#45;&gt;6 -->
<g id="edge17" class="edge">
<title>4&#45;&gt;6</title>
<path fill="none" stroke="black" d="M144.07,-1060.21C148.07,-1048.85 152.16,-1036 155,-1024 162.52,-992.25 167.35,-955.7 170.26,-927.91"/>
<polygon fill="black" stroke="black" points="173.77,-928.02 171.29,-917.72 166.81,-927.32 173.77,-928.02"/>
</g>
<!-- 5&#45;&gt;6 -->
<g id="edge5" class="edge">
<title>5&#45;&gt;6</title>
<path fill="none" stroke="white" d="M115.92,-954.23C123.51,-945.06 131.81,-935.02 139.71,-925.47"/>
<polygon fill="white" stroke="white" points="142.54,-927.53 146.22,-917.6 137.15,-923.07 142.54,-927.53"/>
</g>
<!-- 8 -->
<g id="node8" class="node">
<title>8</title>
<polygon fill="none" stroke="red" points="30,-636.5 30,-705.5 146,-705.5 146,-636.5 30,-636.5"/>
<text text-anchor="middle" x="43" y="-667.3" font-family="Times,serif" font-size="14.00">8</text>
<polyline fill="none" stroke="red" points="56,-636.5 56,-705.5 "/>
<text text-anchor="middle" x="101" y="-690.3" font-family="Times,serif" font-size="14.00">Data = 80</text>
<polyline fill="none" stroke="red" points="56,-682.5 146,-682.5 "/>
<text text-anchor="middle" x="101" y="-667.3" font-family="Times,serif" font-size="14.00">Next = 12</text>
<polyline fill="none" stroke="red" points="56,-659.5 146,-659.5 "/>
<text text-anchor="middle" x="101" y="-644.3" font-family="Times,serif" font-size="14.00">Prev = 5</text>
</g>
<!-- 5&#45;&gt;8 -->
<g id="edge20" class="edge">
<title>5&#45;&gt;8</title>
<path fill="none" stroke="black" d="M88,-954.48C88,-897 88,-779.67 88,-715.8"/>
<polygon fill="black" stroke="black" points="91.5,-715.65 88,-705.65 84.5,-715.65 91.5,-715.65"/>
</g>
<!-- 7 -->
<g id="node7" class="node">
<title>7</title>
<polygon fill="none" stroke="red" points="97.5,-742.5 97.5,-811.5 212.5,-811.5 212.5,-742.5 97.5,-742.5"/>
<text text-anchor="middle" x="110.5" y="-773.3" font-family="Times,serif" font-size="14.00">7</text>
<polyline fill="none" stroke="red" points="123.5,-742.5 123.5,-811.5 "/>
<text text-anchor="middle" x="168" y="-796.3" font-family="Times,serif" font-size="14.00">Data = 70</text>
<polyline fill="none" stroke="red" points="123.5,-788.5 212.5,-788.5 "/>
<text text-anchor="middle" x="168" y="-773.3" font-family="Times,serif" font-size="14.00">Next = 5</text>
<polyline fill="none" stroke="red" points="123.5,-765.5 212.5,-765.5 "/>
<text text-anchor="middle" x="168" y="-750.3" font-family="Times,serif" font-size="14.00">Prev = 6</text>
</g>
<!-- 6&#45;&gt;7 -->
<g id="edge6" class="edge">
<title>6&#45;&gt;7</title>
<path fill="none" stroke="white" d="M161.46,-848.23C159.55,-839.79 157.77,-830.62 156.32,-821.77"/>
<polygon fill="white" stroke="white" points="159.74,-820.96 154.78,-811.6 152.82,-822.01 159.74,-820.96"/>
</g>
<!-- 6&#45;&gt;7 -->
<g id="edge18" class="edge">
<title>6&#45;&gt;7</title>
<path fill="none" stroke="black" d="M174.2,-848.23C173.01,-839.7 171.42,-830.42 169.61,-821.48"/>
<polygon fill="black" stroke="black" points="173.01,-820.64 167.5,-811.6 166.17,-822.11 173.01,-820.64"/>
</g>
<!-- 7&#45;&gt;5 -->
<g id="edge19" class="edge">
<title>7&#45;&gt;5</title>
<path fill="none" stroke="black" d="M128.04,-811.54C120.42,-822.58 112.88,-835.29 108,-848 96.13,-878.93 91.21,-916.15 89.22,-944.43"/>
<polygon fill="black" stroke="black" points="85.73,-944.23 88.61,-954.42 92.71,-944.65 85.73,-944.23"/>
</g>
<!-- 7&#45;&gt;8 -->
<g id="edge7" class="edge">
<title>7&#45;&gt;8</title>
<path fill="none" stroke="white" d="M133.25,-742.23C127.45,-733.24 121.13,-723.42 115.09,-714.04"/>
<polygon fill="white" stroke="white" points="118,-712.11 109.64,-705.6 112.12,-715.9 118,-712.11"/>
</g>
<!-- 9 -->
<g id="node9" class="node">
<title>9</title>
<polygon fill="none" stroke="red" points="102.5,-530.5 102.5,-599.5 231.5,-599.5 231.5,-530.5 102.5,-530.5"/>
<text text-anchor="middle" x="115.5" y="-561.3" font-family="Times,serif" font-size="14.00">9</text>
<polyline fill="none" stroke="red" points="128.5,-530.5 128.5,-599.5 "/>
<text text-anchor="middle" x="180" y="-584.3" font-family="Times,serif" font-size="14.00">Data = &#45;999</text>
<polyline fill="none" stroke="red" points="128.5,-576.5 231.5,-576.5 "/>
<text text-anchor="middle" x="180" y="-561.3" font-family="Times,serif" font-size="14.00">Next = &#45;13</text>
<polyline fill="none" stroke="red" points="128.5,-553.5 231.5,-553.5 "/>
<text text-anchor="middle" x="180" y="-538.3" font-family="Times,serif" font-size="14.00">Prev = 12</text>
</g>
<!-- 8&#45;&gt;9 -->
<g id="edge8" class="edge">
<title>8&#45;&gt;9</title>
<path fill="none" stroke="white" d="M113.65,-636.23C120.55,-627.15 128.09,-617.22 135.28,-607.76"/>
<polygon fill="white" stroke="white" points="138.22,-609.68 141.48,-599.6 132.64,-605.44 138.22,-609.68"/>
</g>
<!-- 12 -->
<g id="node12" class="node">
<title>12</title>
<polygon fill="none" stroke="red" points="3,-212.5 3,-281.5 127,-281.5 127,-212.5 3,-212.5"/>
<text text-anchor="middle" x="20.5" y="-243.3" font-family="Times,serif" font-size="14.00">12</text>
<polyline fill="none" stroke="red" points="38,-212.5 38,-281.5 "/>
<text text-anchor="middle" x="82.5" y="-266.3" font-family="Times,serif" font-size="14.00">Data = 77</text>
<polyline fill="none" stroke="red" points="38,-258.5 127,-258.5 "/>
<text text-anchor="middle" x="82.5" y="-243.3" font-family="Times,serif" font-size="14.00">Next = 0</text>
<polyline fill="none" stroke="red" points="38,-235.5 127,-235.5 "/>
<text text-anchor="middle" x="82.5" y="-220.3" font-family="Times,serif" font-size="14.00">Prev = 8</text>
</g>
<!-- 8&#45;&gt;12 -->
<g id="edge21" class="edge">
<title>8&#45;&gt;12</title>
<path fill="none" stroke="black" d="M82.28,-636.18C74.46,-560.23 64.29,-376.21 63.07,-291.73"/>
<polygon fill="black" stroke="black" points="66.57,-291.65 62.96,-281.69 59.57,-291.72 66.57,-291.65"/>
</g>
<!-- 8&#45;&gt;12 -->
<g id="edge22" class="edge">
<title>8&#45;&gt;12</title>
<path fill="none" stroke="black" d="M90.03,-636.18C89.57,-560.23 79.69,-376.21 71.7,-291.73"/>
<polygon fill="black" stroke="black" points="75.17,-291.3 70.71,-281.69 68.21,-291.98 75.17,-291.3"/>
</g>
<!-- 10 -->
<g id="node10" class="node">
<title>10</title>
<polygon fill="none" stroke="red" points="102,-424.5 102,-493.5 232,-493.5 232,-424.5 102,-424.5"/>
<text text-anchor="middle" x="119.5" y="-455.3" font-family="Times,serif" font-size="14.00">10</text>
<polyline fill="none" stroke="red" points="137,-424.5 137,-493.5 "/>
<text text-anchor="middle" x="184.5" y="-478.3" font-family="Times,serif" font-size="14.00">Data = 0</text>
<polyline fill="none" stroke="red" points="137,-470.5 232,-470.5 "/>
<text text-anchor="middle" x="184.5" y="-455.3" font-family="Times,serif" font-size="14.00">Next = &#45;11</text>
<polyline fill="none" stroke="red" points="137,-447.5 232,-447.5 "/>
<text text-anchor="middle" x="184.5" y="-432.3" font-family="Times,serif" font-size="14.00">Prev = 9</text>
</g>
<!-- 9&#45;&gt;10 -->
<g id="edge9" class="edge">
<title>9&#45;&gt;10</title>
<path fill="none" stroke="white" d="M167,-530.23C167,-521.79 167,-512.62 167,-503.77"/>
<polygon fill="white" stroke="white" points="170.5,-503.6 167,-493.6 163.5,-503.6 170.5,-503.6"/>
</g>
<!-- 10&#45;&gt;11 -->
<g id="edge10" class="edge">
<title>10&#45;&gt;11</title>
<path fill="none" stroke="white" d="M166.35,-424.23C166.19,-415.79 166.01,-406.62 165.84,-397.77"/>
<polygon fill="white" stroke="white" points="169.34,-397.53 165.65,-387.6 162.34,-397.66 169.34,-397.53"/>
</g>
<!-- 11&#45;&gt;3 -->
<g id="edge15" class="edge">
<title>11&#45;&gt;3</title>
<path fill="none" stroke="black" d="M115.65,-387.56C67.68,-424.6 2,-489 2,-564 2,-990 2,-990 2,-990 2,-1056.39 49.39,-1119.44 86.72,-1158.82"/>
<polygon fill="black" stroke="black" points="84.56,-1161.62 94.03,-1166.37 89.59,-1156.75 84.56,-1161.62"/>
</g>
<!-- 11&#45;&gt;12 -->
<g id="edge11" class="edge">
<title>11&#45;&gt;12</title>
<path fill="none" stroke="white" d="M132.53,-318.23C123.53,-308.88 113.67,-298.62 104.32,-288.9"/>
<polygon fill="white" stroke="white" points="106.76,-286.38 97.3,-281.6 101.71,-291.23 106.76,-286.38"/>
</g>
<!-- 13 -->
<g id="node13" class="node">
<title>13</title>
<polygon fill="none" stroke="red" points="0,-106.5 0,-175.5 130,-175.5 130,-106.5 0,-106.5"/>
<text text-anchor="middle" x="17.5" y="-137.3" font-family="Times,serif" font-size="14.00">13</text>
<polyline fill="none" stroke="red" points="35,-106.5 35,-175.5 "/>
<text text-anchor="middle" x="82.5" y="-160.3" font-family="Times,serif" font-size="14.00">Data = 0</text>
<polyline fill="none" stroke="red" points="35,-152.5 130,-152.5 "/>
<text text-anchor="middle" x="82.5" y="-137.3" font-family="Times,serif" font-size="14.00">Next = &#45;14</text>
<polyline fill="none" stroke="red" points="35,-129.5 130,-129.5 "/>
<text text-anchor="middle" x="82.5" y="-114.3" font-family="Times,serif" font-size="14.00">Prev = 12</text>
</g>
<!-- 12&#45;&gt;13 -->
<g id="edge12" class="edge">
<title>12&#45;&gt;13</title>
<path fill="none" stroke="white" d="M65,-212.23C65,-203.79 65,-194.62 65,-185.77"/>
<polygon fill="white" stroke="white" points="68.5,-185.6 65,-175.6 61.5,-185.6 68.5,-185.6"/>
</g>
<!-- 14 -->
<g id="node14" class="node">
<title>14</title>
<polygon fill="none" stroke="red" points="0,-0.5 0,-69.5 130,-69.5 130,-0.5 0,-0.5"/>
<text text-anchor="middle" x="17.5" y="-31.3" font-family="Times,serif" font-size="14.00">14</text>
<polyline fill="none" stroke="red" points="35,-0.5 35,-69.5 "/>
<text text-anchor="middle" x="82.5" y="-54.3" font-family="Times,serif" font-size="14.00">Data = 0</text>
<polyline fill="none" stroke="red" points="35,-46.5 130,-46.5 "/>
<text text-anchor="middle" x="82.5" y="-31.3" font-family="Times,serif" font-size="14.00">Next = &#45;15</text>
<polyline fill="none" stroke="red" points="35,-23.5 130,-23.5 "/>
<text text-anchor="middle" x="82.5" y="-8.3" font-family="Times,serif" font-size="14.00">Prev = 13</text>
</g>
<!-- 13&#45;&gt;14 -->
<g id="edge13" class="edge">
<title>13&#45;&gt;14</title>
<path fill="none" stroke="white" d="M65,-106.23C65,-97.79 65,-88.62 65,-79.77"/>
<polygon fill="white" stroke="white" points="68.5,-79.6 65,-69.6 61.5,-79.6 68.5,-79.6"/>
</g>
</g>
</svg>
